<?xml version="1.0" encoding="utf-8"?>
<!-- Generator: Adobe Illustrator 22.0.0, SVG Export Plug-In . SVG Version: 6.00 Build 0)  -->
<svg version="1.1" id="Camada_1" xmlns="http://www.w3.org/2000/svg" xmlns:xlink="http://www.w3.org/1999/xlink" x="0px" y="0px"
	 viewBox="0 0 44.8 45.1" style="enable-background:new 0 0 44.8 45.1;" xml:space="preserve">
<style type="text/css">
	.st0{fill:#FFCF14;}
	.st1{fill:#FFFFFF;}
	.st2{fill:url(#SVGID_1_);}
	.st3{fill:#FFFFFF;stroke:#FFFFFF;stroke-miterlimit:10;}
</style>
<path class="st0" d="M-81.5-2.2C-81.5-2.2-81.5-2.2-81.5-2.2c-0.1,0-0.2,0-0.3,0c0.1,0-0.1-0.1,0.1-0.1c-0.6-0.1-0.9,0.1-1.2,0l0,0
	c-0.6,0-0.3,0-0.4,0.1l-0.4,0c-0.1,0-0.2-0.1-0.3-0.1l-0.1,0.1c-0.1,0-0.2,0-0.2,0c-0.3,0.1,0.1,0-0.1,0.1c-0.1,0-0.2,0-0.3,0
	c-0.1,0-0.3,0-0.4,0c-0.2,0-0.4,0.1-0.5,0c-0.1,0.1,0.4,0,0,0.1c-0.1,0-0.2,0-0.3,0c-0.1,0.1-0.3,0.1-0.5,0.2
	c0.1-0.1,0.4-0.2,0.1-0.1c0,0-0.1,0.1-0.2,0.1c-0.1,0-0.2,0.1-0.3,0.1c-0.1,0-0.2,0.1-0.3,0.1c-0.1,0-0.2,0.1-0.2,0.1
	c0,0-0.1,0.1-0.3,0.3c-0.2,0.1-0.4,0.3-0.6,0.5c0,0,0,0-0.1,0.1c0,0-0.1,0.1-0.1,0.1c0,0-0.1,0.1-0.1,0.2c-0.2,0.2-0.4,0.5-0.5,0.7
	l0,0c0,0.1,0,0.2-0.1,0.3c-0.1,0.2-0.1,0.3-0.2,0.5c0,0,0-0.1,0-0.3c0,0.1-0.1,0.2-0.1,0.3c0,0.1,0,0.2-0.1,0.4c0,0,0-0.1,0-0.1
	c-0.1,0.4-0.2,0.8-0.3,1.4c0,0,0.1-0.2,0.2-0.1c0,0.1,0,0.2-0.1,0.3c0,0,0,0,0-0.1c0,0,0,0.2,0,0.3l0-0.2c-0.1,0.2,0,0.1,0,0.3
	c0,0-0.1,0.1-0.1,0.1c0-0.1,0-0.2,0-0.2c0,0.2-0.1,0.5-0.2,0.6c0,0,0.1,0,0.1,0.2c0,0.4-0.1,0.1-0.1,0.4c0,0.1,0,0.4,0,0.4
	c0,0.1,0,0.1-0.1,0.2c0,0.2-0.1,1,0,0.8l0-0.1c0,0,0,0,0,0c0,0.7-0.1,1.5-0.2,2.2l0,0c0,0.4,0,0.9,0,1.2c0,0.1-0.1,0.3-0.1,0.2
	c0,0.3,0,0.4-0.1,0.8c0-0.3,0,0.1,0-0.3c-0.1,0.4-0.1,0.5-0.1,1c-0.1-0.2-0.1,0.3-0.1,0.5l0.1-0.3c0,0.2,0,0.4,0,0.6l-0.1-0.1
	c-0.2,0.8,0.1,1.5-0.1,2.2c0,0.2,0.1-0.5,0.1-0.3c0,0.4-0.2,0.8-0.2,0.9c-0.1,0.3,0,0.4,0,0.5c0,0.1,0,0.3,0,0.5c0,0,0.1-0.1,0.1,0
	c0,0,0,0.1,0,0.3c-0.1,0.2-0.1,0.3-0.2,0.3c0,0-0.1,0,0-0.1c0-0.1,0-0.1,0.1-0.1c0-0.1,0-0.3,0-0.1l0,0.1c0,0.1-0.1,0.3-0.2,0.4
	c-0.1,0.1-0.1,0.2-0.1,0.1c0,0.1,0,0.2,0,0.1c0,0,0-0.1,0.1-0.1c-0.1,0.2-0.2,0.3-0.3,0.5c-0.1,0.2-0.2,0.3-0.4,0.5
	c0.1,0,0.1-0.1,0.1,0c-0.1,0.1-0.2,0.2-0.3,0.2c-0.1,0-0.1,0.1-0.1,0.1c0,0,0,0-0.1,0.1c0,0-0.1,0.1-0.2,0.1c-0.1,0.1-0.1,0-0.1,0
	c0,0,0,0-0.1,0c0,0-0.1,0.1-0.2,0.1c-0.3,0.1-0.1,0,0-0.1c-0.4,0.2-0.9,0.3-1.1,0.3l0.2-0.1c-0.1,0-0.3,0.1-0.4,0.1
	c0.1,0,0.1,0,0.2,0c-0.2,0-0.3,0-0.3,0c-0.1,0.1,0.1,0.1-0.2,0.2c-0.1,0-0.1,0-0.2,0c-0.1,0-0.2,0-0.3,0.1c-0.1,0-0.1,0-0.1,0
	c0,0,0,0,0,0c0,0,0,0,0,0c0,0,0,0,0,0.1c0,0.1,0,0.1,0,0.1c0-0.1,0-0.1,0-0.2c0,0,0,0,0-0.1c0,0,0,0,0,0c0.1,0,0.1,0,0.1,0
	c0,0,0,0,0,0c-0.1,0-0.1,0,0.1-0.1c0,0-0.1,0-0.1,0c-0.1,0-0.1,0-0.2,0c0,0,0,0,0,0l0,0c0,0,0,0.1,0,0.1c0,0,0,0,0-0.1
	c0,0.3,0,0.4,0,0.5c0,0.1,0,0.1,0,0.1c0,0.1,0.1,0.1,0.1,0.4c0-0.1-0.1,0.1-0.1,0.2c0-0.2,0.1-0.1,0.1,0.1c0,0.4,0,0.4,0,0.6l0-0.2
	c0,0.1,0,0.3,0,0.5c0,0,0-0.2,0-0.2c0,0.1,0,0.2,0,0.2c0,0.1,0,0.1,0,0.2c0,0.1,0,0.1,0,0.2c0,0,0,0.1,0,0.1l0,0.1c0,0,0,0,0,0
	c0.1,0,0.1,0,0.2,0c0.1,0,0.2,0,0.2,0c0.1,0,0.1,0,0.2,0c0.2,0.1,0,0.1,0.2,0.1c0.2,0,0.4,0.1,0.5,0.1c0.1,0.1,0.2,0.1,0.5,0.2
	c-0.1,0-0.1-0.1-0.1-0.1c0,0,0.1,0,0.3,0.1c-0.3-0.1-0.5-0.2-0.8-0.2c0.1,0,0.2,0,0.3,0c0.1,0,0.2,0,0.3,0c-0.1,0-0.3-0.1-0.4-0.1
	c-0.1,0-0.2,0-0.3-0.1c0.3,0,0.2,0,0.1,0c0.2,0.1,0.3,0.1,0.5,0.2c0.2,0,0.4,0.1,0.5,0.2l-0.1,0.1c0.2,0.2,0.5,0.3,0.7,0.4
	c0.2,0.2,0.4,0.4,0.6,0.7c0-0.1-0.1-0.1-0.1-0.2c0,0,0.1,0.1,0.2,0.2c0.1,0.1,0.1,0.2,0.2,0.4c-0.1,0,0,0.1,0,0.2
	c0,0,0.1,0.1,0.1,0.2c0,0.1,0,0.1,0.1,0.2c0,0.1,0,0.1,0.1,0.1c0,0.1,0,0.2,0,0.3c0,0.3,0.1,0.5,0.1,0.6c0.1,0.2,0.1,0.3,0.1,0.6
	c-0.1-0.2-0.1,0.1-0.1-0.3c0,0.2,0,0.4,0,0.4c0,0.1,0.1,0.5,0,0.7c0,0.1,0.1,0.1,0.1,0.3c0,0,0,0,0,0c0,0,0,0.3,0.1,0.1
	c-0.1,0.6,0.1,1.7,0,2.2c0,0.4,0.1,0.9,0.1,1.3c0,0,0,0,0-0.1c0,0.5,0.2,0.3,0.1,0.9c-0.1,0.3-0.1-0.3-0.1-0.1
	c-0.2,0.1,0.1,0.7,0,1.2l0-0.1c0,0.3,0.1,0.8,0.1,1.3c0,0,0,0,0,0c0.1,0.3,0.1,1,0.2,1.5c-0.1-0.2,0-0.2-0.1-0.1
	c0,0.2,0.1-0.1,0.1,0.4c0,0.1,0,0.5-0.1,0.5c0-0.1,0-0.3,0-0.4c-0.1,0.2,0,0.5,0.1,0.8l0,0c0,0.2,0,0.3,0.1,0.4c0,0.1,0,0.2,0.1,0.3
	c0.1,0.2,0.1,0.3,0.2,0.7l0-0.1c0.1,0.2,0.1,0.3,0.1,0.3c0,0.1,0,0.2,0.1,0.3l-0.1,0.1c0.1,0.2,0.4,0.8,0.6,1.2
	c-0.1,0-0.1-0.1-0.2-0.2c-0.1-0.1-0.1-0.2-0.2-0.3c-0.1-0.1-0.1-0.2-0.2-0.3c0-0.1-0.1-0.2-0.1-0.3c0,0.1,0.1,0.3,0.2,0.5
	c0.1,0.2,0.2,0.3,0.2,0.4c-0.1-0.1-0.1-0.2-0.2-0.3c0.2,0.3,0.4,0.6,0.7,1c-0.1,0,0.1,0.3,0.4,0.6c0.1,0.1,0.1,0.1,0.2,0.2
	c0,0,0.1,0.1,0.1,0.1c0,0,0.1,0.1,0.1,0.1c0.1,0.1,0.1,0.1,0.2,0.2c0.1,0,0.1,0.1,0.1,0.1c0.4,0.2,0.9,0.4,1.4,0.5
	c0.5,0.1,1,0.2,1.6,0.3c-0.2-0.1-0.1-0.1,0-0.1c0.1,0,0.3,0,0.3-0.1c0.3,0,0.4,0,0.4,0l-0.1,0c0,0,0,0,0.1,0l0,0l0.8,0.1
	c0.2,0-0.2,0-0.2,0.1c0.6,0,0.2,0.1,0.6,0.1c-0.1-0.1,0.2-0.1,0.5,0l-0.4-0.1c0.3,0,0.5,0,0.6,0c0,0,0,0,0.1,0c0,0,0.1,0,0.1,0
	c0.1,0,0.1,0,0.2,0c0.1,0,0.3,0,0.5,0c0-0.2,0-0.4,0-0.7l0,0.4c0-0.2,0-0.7,0-1.1c0-0.3,0-0.7-0.1-0.9c0-0.1,0.1-0.2,0.1,0
	c0,0,0-0.1,0-0.1c0-0.1,0-0.1,0-0.2c0-0.2,0-0.4,0-0.5c-0.3,0-0.8,0-0.9,0c-0.2,0-0.4,0-0.6,0c-0.1,0-0.2,0-0.3,0
	c-0.1,0-0.2,0-0.3,0c-0.2,0-0.3,0-0.5-0.1l0.1,0c-0.2,0-0.3,0-0.5,0c0,0,0.1,0,0,0c-0.1,0-0.4,0-0.6-0.2c0.1,0,0.1,0,0.2,0
	c-0.4-0.2-0.7-0.3-0.9-0.5c-0.3-0.2-0.5-0.4-0.7-0.7c0,0,0-0.2-0.1-0.4c-0.1-0.2-0.1-0.4-0.2-0.6l0,0c-0.1-0.5-0.2-0.9-0.3-1.3
	c-0.1-0.4-0.1-0.8-0.2-1.3c0.1-0.6,0-2,0-2.9c0,0.1-0.1,0-0.1-0.2c0-0.2-0.1-0.6,0-0.6l0,0.1c0.1-0.2,0.1-0.6,0-1l-0.1-0.1
	c0.2-0.9-0.2-2.4,0-2.9c0-0.2,0-0.5-0.1-0.7l0.1,0c0-0.2,0-0.3,0-0.4c0-0.1,0-0.3,0-0.4c0-0.1,0-0.3,0-0.4c0-0.1,0-0.3-0.1-0.5
	l0.1,0.2c0-0.2-0.1-0.4-0.2-0.5c-0.1-0.1-0.2-0.2-0.2-0.4c0,0,0-0.1,0.1-0.1l-0.1-0.3l0-0.1l0-0.1l-0.1-0.3c0-0.1-0.1-0.2-0.1-0.3
	c0-0.1-0.1-0.2-0.1-0.3c-0.1-0.1-0.1-0.2-0.2-0.3c-0.1-0.2-0.2-0.3-0.4-0.5c0,0,0.1,0,0.1,0.1c-0.1-0.2-0.3-0.4-0.6-0.7
	c-0.2-0.2-0.4-0.3-0.4-0.2c0,0-0.2-0.2-0.4-0.3c-0.1,0-0.1-0.1-0.2-0.1c-0.1,0-0.1-0.1-0.2-0.1c-0.1-0.1-0.3-0.1-0.4-0.1l0.1,0
	c-0.1,0-0.2,0-0.2,0c0,0-0.1,0-0.1,0c0,0-0.1,0-0.1,0c-0.1,0-0.1,0-0.2,0c0,0,0,0,0.1,0c-0.1,0-0.1,0-0.2,0c-0.2,0-0.1,0,0.1-0.1
	c0,0,0,0,0,0c0.2-0.1,0.1-0.1,0.2-0.1c0,0,0.1,0,0.1-0.1c0,0,0.1,0,0.1,0c0,0,0.1,0,0.1,0c0.2-0.1,0.3-0.1,0.4-0.1
	c0,0,0.1-0.1,0.1-0.1c0,0,0.1-0.1,0.1-0.1c0,0,0.1-0.1,0.2-0.1c0,0,0,0.1-0.1,0.1c0.2-0.1,0.3-0.2,0.4-0.2c0.1-0.1,0.2-0.2,0.3-0.3
	c0,0,0.1-0.1,0.1-0.1c0,0,0.1-0.1,0.1-0.1c0.1-0.1,0.2-0.2,0.3-0.2c0,0,0.1,0,0.1,0c-0.1,0.1-0.2,0.2-0.3,0.3
	c-0.1,0.1-0.2,0.2-0.2,0.2c-0.1,0.1-0.2,0.1-0.2,0.2c0,0,0.4-0.2,0.2,0.1c0.1-0.1,0.1-0.1,0.2-0.2c0.1-0.1,0.2-0.2,0.2-0.3
	c0.1-0.1,0.2-0.2,0.2-0.3c0.1-0.1,0.2-0.2,0.2-0.3c0,0,0,0,0,0l0,0c0.1-0.1,0.1-0.2,0.1-0.2c0.1-0.1,0.1-0.2,0.2-0.3
	c0,0,0.1-0.1,0.2-0.3c0.1-0.1,0.1-0.3,0.2-0.4c-0.1,0,0-0.3-0.1,0c0,0,0,0-0.1,0.2c0,0,0,0.1,0,0.1c0,0,0,0,0,0
	c0,0.1-0.1,0.3-0.2,0.5c0-0.2,0.1-0.3,0.2-0.5c0-0.1,0-0.2,0-0.3c0.1-0.1,0.2-0.3,0.3-0.5c0.1-0.2,0.1-0.3,0.2-0.4
	c0.1-0.6,0.2-1.5,0.1-1.9c0-0.2,0.1-0.2,0.1-0.3c0,0.1,0,0.2,0,0.3c0-0.4,0.1-1.1,0-1.2c0.1-0.4,0.1,0.3,0.1-0.4l0,0.1
	c0.2-1.2-0.1-2,0.2-3.3c0,0.1,0,0.1,0,0.2c0.1-0.8,0.1-1.6,0.2-2.4c0-0.8,0.1-1.6,0.2-2.3c0.1-0.4,0-0.5,0-0.7l0.1-0.1
	c0-0.2,0-0.3,0-0.5c0-0.3,0.2-0.6,0.3-0.8c0.2-0.2,0.3-0.5,0.5-0.9l-0.1,0.1c0.1-0.1,0.2-0.3,0.4-0.4c0.1-0.1,0.3-0.2,0.3-0.2
	c0,0,0-0.1,0.2-0.1l0,0c0.2-0.1,0.4-0.2,0.7-0.3c0.3-0.1,0.3,0,0.3,0c0,0,0.1,0,0.5,0c0.2,0,0.4-0.1,0.5-0.1c0.2,0,0.3-0.1,0.2-0.1
	c-0.1,0-0.3,0-0.3-0.1c0.1,0,0.2,0,0.3,0c0,0,0,0,0,0c0,0,0,0,0,0l1.5,0l0-1.9l0,0c0,0,0-0.1,0-0.1l0-0.4c0,0,0,0,0,0.1
	c0-0.1,0-0.2,0-0.3C-81.3-2.2-81.3-2.2-81.5-2.2z M-88,17C-88,17-88,17-88,17C-87.9,17-87.9,17-88,17c0,0.2-0.1,0.2-0.1,0.2
	C-88,17.1-88,17.1-88,17z M-81.6-2.2C-81.6-2.2-81.6-2.2-81.6-2.2l-0.1,0C-81.7-2.2-81.7-2.2-81.6-2.2z"/>
<g>
	<g>
		<path class="st1" d="M-73.4-111.1c1.9,0,1.9-3,0-3C-75.4-114.1-75.4-111.1-73.4-111.1L-73.4-111.1z"/>
	</g>
</g>
<g>
	<linearGradient id="SVGID_1_" gradientUnits="userSpaceOnUse" x1="1.0575" y1="22.537" x2="43.9063" y2="22.537">
		<stop  offset="0" style="stop-color:#FFBF4E"/>
		<stop  offset="0.3229" style="stop-color:#FFBE4B"/>
		<stop  offset="0.5238" style="stop-color:#FFB943"/>
		<stop  offset="0.6915" style="stop-color:#FFB134"/>
		<stop  offset="0.8409" style="stop-color:#FFA520"/>
		<stop  offset="0.9768" style="stop-color:#FF9605"/>
		<stop  offset="1" style="stop-color:#FF9300"/>
	</linearGradient>
	<path class="st2" d="M22.5,1.1c-11.8,0-21.4,9.6-21.4,21.4C1.1,34.4,10.6,44,22.5,44c11.8,0,21.4-9.6,21.4-21.4
		C43.9,10.7,34.3,1.1,22.5,1.1z M30,32.8c0,0.2-0.1,0.3-0.3,0.3H15.2c-0.2,0-0.3-0.1-0.3-0.3V11.2c0-0.2,0.1-0.3,0.3-0.3h14.5
		c0.2,0,0.3,0.1,0.3,0.3V32.8z"/>
</g>
<path id="XMLID_10656_" class="st1" d="M30.2,6.7H14.7c-1.4,0-2.6,1.2-2.6,2.6v25.4c0,1.4,1.2,2.6,2.6,2.6h15.5
	c1.4,0,2.6-1.2,2.6-2.6V9.3C32.8,7.9,31.7,6.7,30.2,6.7z M31.7,34.7c0,0.8-0.7,1.5-1.5,1.5H14.7c-0.8,0-1.5-0.7-1.5-1.5V9.3
	c0-0.8,0.7-1.5,1.5-1.5h15.5c0.8,0,1.5,0.7,1.5,1.5V34.7z"/>
<path id="XMLID_10655_" class="st3" d="M22.1,35.3c0.5,0,0.8-0.4,0.8-0.8c0-0.5-0.4-0.8-0.8-0.8c-0.5,0-0.8,0.4-0.8,0.8
	C21.2,35,21.6,35.3,22.1,35.3z"/>
<path id="XMLID_10654_" class="st3" d="M21.4,10.2h2.1c0.2,0,0.3-0.1,0.3-0.3c0-0.2-0.1-0.3-0.3-0.3h-2.1c-0.2,0-0.3,0.1-0.3,0.3
	C21.1,10.1,21.3,10.2,21.4,10.2z"/>
<path id="XMLID_10653_" class="st3" d="M19.5,10.2c0.1,0,0.2-0.1,0.2-0.2c0-0.1-0.1-0.2-0.2-0.2c-0.1,0-0.2,0.1-0.2,0.2
	C19.2,10.1,19.3,10.2,19.5,10.2z"/>
<g>
</g>
<g>
</g>
<g>
</g>
<g>
</g>
<g>
</g>
<g>
</g>
<g>
</g>
<g>
</g>
<g>
</g>
<g>
</g>
<g>
</g>
<g>
</g>
<g>
</g>
<g>
</g>
<g>
</g>
</svg>
