<?xml version="1.0" encoding="utf-8"?>
<!-- Generator: Adobe Illustrator 22.0.0, SVG Export Plug-In . SVG Version: 6.00 Build 0)  -->
<svg version="1.1" id="Camada_1" xmlns="http://www.w3.org/2000/svg" xmlns:xlink="http://www.w3.org/1999/xlink" x="0px" y="0px"
	 viewBox="0 0 44.8 45.1" style="enable-background:new 0 0 44.8 45.1;" xml:space="preserve">
<style type="text/css">
	.st0{fill:#FFCF14;}
	.st1{fill:#FFFFFF;}
	.st2{fill:#FFB02A;}
	.st3{fill:url(#SVGID_1_);}
	.st4{fill:url(#SVGID_2_);}
</style>
<path class="st0" d="M-81.5-2.2C-81.5-2.2-81.5-2.2-81.5-2.2c-0.1,0-0.2,0-0.3,0c0.1,0-0.1-0.1,0.1-0.1c-0.6-0.1-0.9,0.1-1.2,0l0,0
	c-0.6,0-0.3,0-0.4,0.1l-0.4,0c-0.1,0-0.2-0.1-0.3-0.1l-0.1,0.1c-0.1,0-0.2,0-0.2,0c-0.3,0.1,0.1,0-0.1,0.1c-0.1,0-0.2,0-0.3,0
	c-0.1,0-0.3,0-0.4,0c-0.2,0-0.4,0.1-0.5,0c-0.1,0.1,0.4,0,0,0.1c-0.1,0-0.2,0-0.3,0c-0.1,0.1-0.3,0.1-0.5,0.2
	c0.1-0.1,0.4-0.2,0.1-0.1c0,0-0.1,0.1-0.2,0.1c-0.1,0-0.2,0.1-0.3,0.1c-0.1,0-0.2,0.1-0.3,0.1c-0.1,0-0.2,0.1-0.2,0.1
	c0,0-0.1,0.1-0.3,0.3c-0.2,0.1-0.4,0.3-0.6,0.5c0,0,0,0-0.1,0.1c0,0-0.1,0.1-0.1,0.1c0,0-0.1,0.1-0.1,0.2c-0.2,0.2-0.4,0.5-0.5,0.7
	l0,0c0,0.1,0,0.2-0.1,0.3c-0.1,0.2-0.1,0.3-0.2,0.5c0,0,0-0.1,0-0.3c0,0.1-0.1,0.2-0.1,0.3c0,0.1,0,0.2-0.1,0.4c0,0,0-0.1,0-0.1
	c-0.1,0.4-0.2,0.8-0.3,1.4c0,0,0.1-0.2,0.2-0.1c0,0.1,0,0.2-0.1,0.3c0,0,0,0,0-0.1c0,0,0,0.2,0,0.3l0-0.2c-0.1,0.2,0,0.1,0,0.3
	c0,0-0.1,0.1-0.1,0.1c0-0.1,0-0.2,0-0.2c0,0.2-0.1,0.5-0.2,0.6c0,0,0.1,0,0.1,0.2c0,0.4-0.1,0.1-0.1,0.4c0,0.1,0,0.4,0,0.4
	c0,0.1,0,0.1-0.1,0.2c0,0.2-0.1,1,0,0.8l0-0.1c0,0,0,0,0,0c0,0.7-0.1,1.5-0.2,2.2l0,0c0,0.4,0,0.9,0,1.2c0,0.1-0.1,0.3-0.1,0.2
	c0,0.3,0,0.4-0.1,0.8c0-0.3,0,0.1,0-0.3c-0.1,0.4-0.1,0.5-0.1,1c-0.1-0.2-0.1,0.3-0.1,0.5l0.1-0.3c0,0.2,0,0.4,0,0.6l-0.1-0.1
	c-0.2,0.8,0.1,1.5-0.1,2.2c0,0.2,0.1-0.5,0.1-0.3c0,0.4-0.2,0.8-0.2,0.9c-0.1,0.3,0,0.4,0,0.5c0,0.1,0,0.3,0,0.5c0,0,0.1-0.1,0.1,0
	c0,0,0,0.1,0,0.3c-0.1,0.2-0.1,0.3-0.2,0.3c0,0-0.1,0,0-0.1c0-0.1,0-0.1,0.1-0.1c0-0.1,0-0.3,0-0.1l0,0.1c0,0.1-0.1,0.3-0.2,0.4
	c-0.1,0.1-0.1,0.2-0.1,0.1c0,0.1,0,0.2,0,0.1c0,0,0-0.1,0.1-0.1c-0.1,0.2-0.2,0.3-0.3,0.5c-0.1,0.2-0.2,0.3-0.4,0.5
	c0.1,0,0.1-0.1,0.1,0c-0.1,0.1-0.2,0.2-0.3,0.2c-0.1,0-0.1,0.1-0.1,0.1c0,0,0,0-0.1,0.1c0,0-0.1,0.1-0.2,0.1c-0.1,0.1-0.1,0-0.1,0
	c0,0,0,0-0.1,0c0,0-0.1,0.1-0.2,0.1c-0.3,0.1-0.1,0,0-0.1c-0.4,0.2-0.9,0.3-1.1,0.3l0.2-0.1c-0.1,0-0.3,0.1-0.4,0.1
	c0.1,0,0.1,0,0.2,0c-0.2,0-0.3,0-0.3,0c-0.1,0.1,0.1,0.1-0.2,0.2c-0.1,0-0.1,0-0.2,0c-0.1,0-0.2,0-0.3,0.1c-0.1,0-0.1,0-0.1,0
	c0,0,0,0,0,0c0,0,0,0,0,0c0,0,0,0,0,0.1c0,0.1,0,0.1,0,0.1c0-0.1,0-0.1,0-0.2c0,0,0,0,0-0.1c0,0,0,0,0,0c0.1,0,0.1,0,0.1,0
	c0,0,0,0,0,0c-0.1,0-0.1,0,0.1-0.1c0,0-0.1,0-0.1,0c-0.1,0-0.1,0-0.2,0c0,0,0,0,0,0l0,0c0,0,0,0.1,0,0.1c0,0,0,0,0-0.1
	c0,0.3,0,0.4,0,0.5c0,0.1,0,0.1,0,0.1c0,0.1,0.1,0.1,0.1,0.4c0-0.1-0.1,0.1-0.1,0.2c0-0.2,0.1-0.1,0.1,0.1c0,0.4,0,0.4,0,0.6l0-0.2
	c0,0.1,0,0.3,0,0.5c0,0,0-0.2,0-0.2c0,0.1,0,0.2,0,0.2c0,0.1,0,0.1,0,0.2c0,0.1,0,0.1,0,0.2c0,0,0,0.1,0,0.1l0,0.1c0,0,0,0,0,0
	c0.1,0,0.1,0,0.2,0c0.1,0,0.2,0,0.2,0c0.1,0,0.1,0,0.2,0c0.2,0.1,0,0.1,0.2,0.1c0.2,0,0.4,0.1,0.5,0.1c0.1,0.1,0.2,0.1,0.5,0.2
	c-0.1,0-0.1-0.1-0.1-0.1c0,0,0.1,0,0.3,0.1c-0.3-0.1-0.5-0.2-0.8-0.2c0.1,0,0.2,0,0.3,0c0.1,0,0.2,0,0.3,0c-0.1,0-0.3-0.1-0.4-0.1
	c-0.1,0-0.2,0-0.3-0.1c0.3,0,0.2,0,0.1,0c0.2,0.1,0.3,0.1,0.5,0.2c0.2,0,0.4,0.1,0.5,0.2l-0.1,0.1c0.2,0.2,0.5,0.3,0.7,0.4
	c0.2,0.2,0.4,0.4,0.6,0.7c0-0.1-0.1-0.1-0.1-0.2c0,0,0.1,0.1,0.2,0.2c0.1,0.1,0.1,0.2,0.2,0.4c-0.1,0,0,0.1,0,0.2
	c0,0,0.1,0.1,0.1,0.2c0,0.1,0,0.1,0.1,0.2c0,0.1,0,0.1,0.1,0.1c0,0.1,0,0.2,0,0.3c0,0.3,0.1,0.5,0.1,0.6c0.1,0.2,0.1,0.3,0.1,0.6
	c-0.1-0.2-0.1,0.1-0.1-0.3c0,0.2,0,0.4,0,0.4c0,0.1,0.1,0.5,0,0.7c0,0.1,0.1,0.1,0.1,0.3c0,0,0,0,0,0c0,0,0,0.3,0.1,0.1
	c-0.1,0.6,0.1,1.7,0,2.2c0,0.4,0.1,0.9,0.1,1.3c0,0,0,0,0-0.1c0,0.5,0.2,0.3,0.1,0.9c-0.1,0.3-0.1-0.3-0.1-0.1
	c-0.2,0.1,0.1,0.7,0,1.2l0-0.1c0,0.3,0.1,0.8,0.1,1.3c0,0,0,0,0,0c0.1,0.3,0.1,1,0.2,1.5c-0.1-0.2,0-0.2-0.1-0.1
	c0,0.2,0.1-0.1,0.1,0.4c0,0.1,0,0.5-0.1,0.5c0-0.1,0-0.3,0-0.4c-0.1,0.2,0,0.5,0.1,0.8l0,0c0,0.2,0,0.3,0.1,0.4c0,0.1,0,0.2,0.1,0.3
	c0.1,0.2,0.1,0.3,0.2,0.7l0-0.1c0.1,0.2,0.1,0.3,0.1,0.3c0,0.1,0,0.2,0.1,0.3l-0.1,0.1c0.1,0.2,0.4,0.8,0.6,1.2
	c-0.1,0-0.1-0.1-0.2-0.2c-0.1-0.1-0.1-0.2-0.2-0.3c-0.1-0.1-0.1-0.2-0.2-0.3c0-0.1-0.1-0.2-0.1-0.3c0,0.1,0.1,0.3,0.2,0.5
	c0.1,0.2,0.2,0.3,0.2,0.4c-0.1-0.1-0.1-0.2-0.2-0.3c0.2,0.3,0.4,0.6,0.7,1c-0.1,0,0.1,0.3,0.4,0.6c0.1,0.1,0.1,0.1,0.2,0.2
	c0,0,0.1,0.1,0.1,0.1c0,0,0.1,0.1,0.1,0.1c0.1,0.1,0.1,0.1,0.2,0.2c0.1,0,0.1,0.1,0.1,0.1c0.4,0.2,0.9,0.4,1.4,0.5
	c0.5,0.1,1,0.2,1.6,0.3c-0.2-0.1-0.1-0.1,0-0.1c0.1,0,0.3,0,0.3-0.1c0.3,0,0.4,0,0.4,0l-0.1,0c0,0,0,0,0.1,0l0,0l0.8,0.1
	c0.2,0-0.2,0-0.2,0.1c0.6,0,0.2,0.1,0.6,0.1c-0.1-0.1,0.2-0.1,0.5,0l-0.4-0.1c0.3,0,0.5,0,0.6,0c0,0,0,0,0.1,0c0,0,0.1,0,0.1,0
	c0.1,0,0.1,0,0.2,0c0.1,0,0.3,0,0.5,0c0-0.2,0-0.4,0-0.7l0,0.4c0-0.2,0-0.7,0-1.1c0-0.3,0-0.7-0.1-0.9c0-0.1,0.1-0.2,0.1,0
	c0,0,0-0.1,0-0.1c0-0.1,0-0.1,0-0.2c0-0.2,0-0.4,0-0.5c-0.3,0-0.8,0-0.9,0c-0.2,0-0.4,0-0.6,0c-0.1,0-0.2,0-0.3,0
	c-0.1,0-0.2,0-0.3,0c-0.2,0-0.3,0-0.5-0.1l0.1,0c-0.2,0-0.3,0-0.5,0c0,0,0.1,0,0,0c-0.1,0-0.4,0-0.6-0.2c0.1,0,0.1,0,0.2,0
	c-0.4-0.2-0.7-0.3-0.9-0.5c-0.3-0.2-0.5-0.4-0.7-0.7c0,0,0-0.2-0.1-0.4c-0.1-0.2-0.1-0.4-0.2-0.6l0,0c-0.1-0.5-0.2-0.9-0.3-1.3
	c-0.1-0.4-0.1-0.8-0.2-1.3c0.1-0.6,0-2,0-2.9c0,0.1-0.1,0-0.1-0.2c0-0.2-0.1-0.6,0-0.6l0,0.1c0.1-0.2,0.1-0.6,0-1l-0.1-0.1
	c0.2-0.9-0.2-2.4,0-2.9c0-0.2,0-0.5-0.1-0.7l0.1,0c0-0.2,0-0.3,0-0.4c0-0.1,0-0.3,0-0.4c0-0.1,0-0.3,0-0.4c0-0.1,0-0.3-0.1-0.5
	l0.1,0.2c0-0.2-0.1-0.4-0.2-0.5c-0.1-0.1-0.2-0.2-0.2-0.4c0,0,0-0.1,0.1-0.1l-0.1-0.3l0-0.1l0-0.1l-0.1-0.3c0-0.1-0.1-0.2-0.1-0.3
	c0-0.1-0.1-0.2-0.1-0.3c-0.1-0.1-0.1-0.2-0.2-0.3c-0.1-0.2-0.2-0.3-0.4-0.5c0,0,0.1,0,0.1,0.1c-0.1-0.2-0.3-0.4-0.6-0.7
	c-0.2-0.2-0.4-0.3-0.4-0.2c0,0-0.2-0.2-0.4-0.3c-0.1,0-0.1-0.1-0.2-0.1c-0.1,0-0.1-0.1-0.2-0.1c-0.1-0.1-0.3-0.1-0.4-0.1l0.1,0
	c-0.1,0-0.2,0-0.2,0c0,0-0.1,0-0.1,0c0,0-0.1,0-0.1,0c-0.1,0-0.1,0-0.2,0c0,0,0,0,0.1,0c-0.1,0-0.1,0-0.2,0c-0.2,0-0.1,0,0.1-0.1
	c0,0,0,0,0,0c0.2-0.1,0.1-0.1,0.2-0.1c0,0,0.1,0,0.1-0.1c0,0,0.1,0,0.1,0c0,0,0.1,0,0.1,0c0.2-0.1,0.3-0.1,0.4-0.1
	c0,0,0.1-0.1,0.1-0.1c0,0,0.1-0.1,0.1-0.1c0,0,0.1-0.1,0.2-0.1c0,0,0,0.1-0.1,0.1c0.2-0.1,0.3-0.2,0.4-0.2c0.1-0.1,0.2-0.2,0.3-0.3
	c0,0,0.1-0.1,0.1-0.1c0,0,0.1-0.1,0.1-0.1c0.1-0.1,0.2-0.2,0.3-0.2c0,0,0.1,0,0.1,0c-0.1,0.1-0.2,0.2-0.3,0.3
	c-0.1,0.1-0.2,0.2-0.2,0.2c-0.1,0.1-0.2,0.1-0.2,0.2c0,0,0.4-0.2,0.2,0.1c0.1-0.1,0.1-0.1,0.2-0.2c0.1-0.1,0.2-0.2,0.2-0.3
	c0.1-0.1,0.2-0.2,0.2-0.3c0.1-0.1,0.2-0.2,0.2-0.3c0,0,0,0,0,0l0,0c0.1-0.1,0.1-0.2,0.1-0.2c0.1-0.1,0.1-0.2,0.2-0.3
	c0,0,0.1-0.1,0.2-0.3c0.1-0.1,0.1-0.3,0.2-0.4c-0.1,0,0-0.3-0.1,0c0,0,0,0-0.1,0.2c0,0,0,0.1,0,0.1c0,0,0,0,0,0
	c0,0.1-0.1,0.3-0.2,0.5c0-0.2,0.1-0.3,0.2-0.5c0-0.1,0-0.2,0-0.3c0.1-0.1,0.2-0.3,0.3-0.5c0.1-0.2,0.1-0.3,0.2-0.4
	c0.1-0.6,0.2-1.5,0.1-1.9c0-0.2,0.1-0.2,0.1-0.3c0,0.1,0,0.2,0,0.3c0-0.4,0.1-1.1,0-1.2c0.1-0.4,0.1,0.3,0.1-0.4l0,0.1
	c0.2-1.2-0.1-2,0.2-3.3c0,0.1,0,0.1,0,0.2c0.1-0.8,0.1-1.6,0.2-2.4c0-0.8,0.1-1.6,0.2-2.3c0.1-0.4,0-0.5,0-0.7l0.1-0.1
	c0-0.2,0-0.3,0-0.5c0-0.3,0.2-0.6,0.3-0.8c0.2-0.2,0.3-0.5,0.5-0.9l-0.1,0.1c0.1-0.1,0.2-0.3,0.4-0.4c0.1-0.1,0.3-0.2,0.3-0.2
	c0,0,0-0.1,0.2-0.1l0,0c0.2-0.1,0.4-0.2,0.7-0.3c0.3-0.1,0.3,0,0.3,0c0,0,0.1,0,0.5,0c0.2,0,0.4-0.1,0.5-0.1c0.2,0,0.3-0.1,0.2-0.1
	c-0.1,0-0.3,0-0.3-0.1c0.1,0,0.2,0,0.3,0c0,0,0,0,0,0c0,0,0,0,0,0l1.5,0l0-1.9l0,0c0,0,0-0.1,0-0.1l0-0.4c0,0,0,0,0,0.1
	c0-0.1,0-0.2,0-0.3C-81.3-2.2-81.3-2.2-81.5-2.2z M-88,17C-88,17-88,17-88,17C-87.9,17-87.9,17-88,17c0,0.2-0.1,0.2-0.1,0.2
	C-88,17.1-88,17.1-88,17z M-81.6-2.2C-81.6-2.2-81.6-2.2-81.6-2.2l-0.1,0C-81.7-2.2-81.7-2.2-81.6-2.2z"/>
<g>
	<g>
		<path class="st1" d="M-73.4-111.1c1.9,0,1.9-3,0-3C-75.4-114.1-75.4-111.1-73.4-111.1L-73.4-111.1z"/>
	</g>
</g>
<g>
	<g>
		<path class="st2" d="M14.7,21.9c-0.3,0-0.4-0.1-0.4-0.3c0-0.1,0-0.2,0.1-0.2c0.4-0.7,1.2-1.5,2.3-1.5c1.4,0,2.2,0.9,2.2,1.8
			c0,1.2-1,2.3-2,3.2c-0.1,0.1-0.3,0.3-0.3,0.4c0,0.2,0.3,0.2,0.4,0.2h1.4c0.4,0,0.4,0.3,0.4,0.6c0,0.1,0,0.1,0,0.2
			c0,0.3-0.1,0.5-0.4,0.5h-3.9c-0.3,0-0.4-0.2-0.4-0.4v-0.6c0-0.1,0.1-0.2,0.2-0.3c0.1-0.1,0.2-0.2,0.4-0.3c0.9-0.7,2.8-2.2,2.8-3.3
			c0-0.4-0.3-0.7-0.8-0.7c-0.4,0-0.6,0.2-0.9,0.5c-0.1,0.1-0.3,0.3-0.4,0.3H14.7z"/>
		<path class="st2" d="M23.3,20c0.3,0,0.4,0.2,0.4,0.4v3.4c0,0.2,0.1,0.3,0.3,0.3c0.3,0,0.4,0.2,0.4,0.4V25c0,0.3-0.2,0.4-0.4,0.4
			c0,0-0.1,0-0.1,0c-0.2,0-0.2,0.1-0.2,0.3v0.6c0,0.2-0.1,0.4-0.4,0.4h-0.5c-0.3,0-0.4-0.2-0.4-0.4c0-0.1,0-0.2,0-0.3
			c0-0.1,0-0.2,0-0.2c0-0.2,0-0.4-0.3-0.4h-2.1c-0.2,0-0.4-0.2-0.4-0.3c0-0.1-0.1-0.2-0.1-0.3c0-0.1,0-0.2,0-0.3
			c0-0.1,0-0.2,0.1-0.2l2.6-4c0.1-0.1,0.2-0.2,0.4-0.2H23.3z M22.3,23c0,0,0-0.2,0-0.3c0,0,0-0.2-0.1-0.2c-0.1,0-0.3,0.3-0.3,0.4
			l-0.5,0.8c-0.1,0.1-0.1,0.2-0.1,0.3c0,0.1,0.1,0.2,0.3,0.2H22c0.2,0,0.3-0.2,0.3-0.3V23z"/>
		<path class="st2" d="M29.1,22.7c0.2,0,0.3-0.2,0.3-0.3v-2.1c0-0.3,0.1-0.4,0.3-0.4c0.1,0,0.2,0,0.3,0c0.1,0,0.2,0,0.3,0
			c0.3,0,0.4,0.2,0.4,0.4v6.1c0,0.2-0.1,0.3-0.3,0.4c-0.1,0-0.2,0-0.3,0s-0.2,0-0.3,0c-0.3,0-0.4-0.2-0.4-0.4v-2.1
			c0-0.1-0.1-0.3-0.3-0.3H27c-0.2,0-0.3,0.2-0.3,0.3v2.1c0,0.4-0.3,0.4-0.7,0.4c-0.1,0-0.2,0-0.2,0c-0.3,0-0.5-0.1-0.5-0.4v-6.1
			c0-0.3,0.2-0.4,0.6-0.4c0,0,0.1,0,0.1,0c0.1,0,0.1,0,0.2,0c0.3,0,0.5,0.1,0.5,0.4l0,2.1c0,0.2,0.1,0.3,0.3,0.3H29.1z"/>
	</g>
</g>
<g>
	<linearGradient id="SVGID_1_" gradientUnits="userSpaceOnUse" x1="0.9063" y1="22.5833" x2="43.9063" y2="22.5833">
		<stop  offset="0" style="stop-color:#FFBF4E"/>
		<stop  offset="0.3229" style="stop-color:#FFBE4B"/>
		<stop  offset="0.5238" style="stop-color:#FFB943"/>
		<stop  offset="0.6915" style="stop-color:#FFB134"/>
		<stop  offset="0.8409" style="stop-color:#FFA520"/>
		<stop  offset="0.9768" style="stop-color:#FF9605"/>
		<stop  offset="1" style="stop-color:#FF9300"/>
	</linearGradient>
	<path class="st3" d="M22.4,1.1c-11.9,0-21.5,9.6-21.5,21.5c0,11.9,9.6,21.5,21.5,21.5c11.9,0,21.5-9.6,21.5-21.5
		C43.9,10.7,34.3,1.1,22.4,1.1z M24.8,36.4L23,38.1c-0.2,0.1-0.3,0.2-0.5,0.2c-0.2,0-0.3-0.1-0.5-0.2L21.8,38c0,0,0,0,0,0L20,36.4
		c-5.2-4.9-9.1-9.5-11.5-13.7c-1.8-3.2-2.2-5-2.2-5.3c-0.1-0.4-0.1-0.7-0.1-1c0-3.8,3.8-7,8.6-7c3.4,0,6.3,3.4,7.6,6.4
		c1.4-3,4.2-6.4,7.6-6.4c4.7,0,8.6,3.1,8.6,7c0,0.3,0,0.7-0.1,1.1C38.4,18,37.2,24.8,24.8,36.4z"/>
	<path class="st1" d="M30.1,9.5c-3.4,0-6.3,3.4-7.6,6.4c-1.4-3-4.2-6.4-7.6-6.4c-4.7,0-8.6,3.1-8.6,7c0,0.3,0,0.7,0.1,1
		c0,0.3,0.4,2.1,2.2,5.3c2.4,4.2,6.3,8.8,11.5,13.7l1.7,1.6c0,0,0,0,0,0l0.1,0.1c0.1,0.1,0.3,0.2,0.5,0.2c0.2,0,0.4-0.1,0.5-0.2
		l1.8-1.7C37.2,24.8,38.4,18,38.5,17.5c0.1-0.4,0.1-0.7,0.1-1.1C38.6,12.6,34.8,9.5,30.1,9.5z M37,17.2C37,17.2,37,17.2,37,17.2
		c0,0.1-1.1,6.6-13.3,18l-1.3,1.2l-1.3-1.2C8.9,23.8,7.9,17.5,7.8,17.2c0,0,0,0,0,0c-0.1-0.3-0.1-0.5-0.1-0.7c0-3,3.1-5.4,7-5.4
		c3.4,0,6.3,4.9,6.9,7.3c0.1,0.4,0.4,0.6,0.8,0.6c0.4,0,0.7-0.3,0.8-0.6c0.6-2.5,3.5-7.3,6.9-7.3c3.9,0,7,2.4,7,5.4
		C37,16.7,37,16.9,37,17.2z"/>
</g>
<g>
	<linearGradient id="SVGID_2_" gradientUnits="userSpaceOnUse" x1="0.6033" y1="22.8854" x2="43.9063" y2="22.8854">
		<stop  offset="0" style="stop-color:#FFBF4E"/>
		<stop  offset="0.3229" style="stop-color:#FFBE4B"/>
		<stop  offset="0.5238" style="stop-color:#FFB943"/>
		<stop  offset="0.6915" style="stop-color:#FFB134"/>
		<stop  offset="0.8409" style="stop-color:#FFA520"/>
		<stop  offset="0.9768" style="stop-color:#FF9605"/>
		<stop  offset="1" style="stop-color:#FF9300"/>
	</linearGradient>
	<path class="st4" d="M22.3,1.2c-12,0-21.7,9.7-21.7,21.7c0,12,9.7,21.7,21.7,21.7c12,0,21.7-9.7,21.7-21.7
		C43.9,10.9,34.2,1.2,22.3,1.2z M21.2,8.1c1-0.2,2-0.2,3,0.1c0.4,0.1,0.6,0,0.8-0.4c0.7-1.4,2.1-1.9,3.5-1.4
		c1.4,0.4,2.2,1.9,1.9,3.3c-0.2,1-0.7,1.7-1.6,2.1c-0.3,0.1-0.4,0.3-0.3,0.6c1.1,3.6-0.9,7.3-4.5,8.2c-3.5,0.9-6.8-1.1-7.8-4.5
		c-0.2-0.6-0.2-1.2-0.3-1.8C16.1,11.3,18.2,8.7,21.2,8.1z M32.7,34.3c-0.1,1.6-0.8,2.8-2.3,3.5c-0.2,0.1-0.5,0.2-0.7,0.2
		c-1.5,0-3.1,0-4.7,0c0-2.5-1.8-3.1-3.8-3.4c0-0.1,0-0.1,0-0.2c0.4-0.1,0.8-0.3,1.2-0.3c2,0,4,0,6,0c0.7,0,1-0.3,1.3-0.8
		c0.8-1.5,0.2-3.3-1.2-4c-1.6-0.8-3.3-0.1-3.9,1.5c-0.2,0.5-0.4,0.6-0.9,0.5c-2.1-0.1-4.1,0.4-5.6,2.1c-0.2,0.3-0.4,0.7-0.5,1
		c0.3,0.1,0.6,0.3,1,0.3c1.4,0.3,2.8,0.6,4.2,1c0.9,0.2,1.5,1.2,1.3,2.2c-0.2,0.9-0.9,1.6-1.9,1.6c-0.4,0-0.8-0.1-1.2-0.2v0
		c-3.4-0.4-5.3-1-6.5-1.6c-0.3-0.1-0.6-0.3-0.8-0.5c-0.6-0.4-0.7-0.8-0.7-0.8s0,0,0,0c-0.7-0.9-0.9-2.2-0.6-3.4
		c0.6-2.1,1.2-4.3,2-6.3c1.1-2.5,3.1-4,5.9-4.1c1.4,0,2.8,0,4.2,0c2.7,0.1,4.7,1.5,5.8,3.9c0.7,1.5,1.1,3.1,1.6,4.7
		C32.3,32.3,32.8,33.2,32.7,34.3z"/>
	<path class="st1" d="M24.1,20.6c3.6-0.9,5.6-4.6,4.5-8.2c-0.1-0.3,0-0.5,0.3-0.6c0.9-0.4,1.5-1.1,1.6-2.1c0.3-1.4-0.6-2.9-1.9-3.3
		c-1.5-0.4-2.8,0-3.5,1.4c-0.2,0.4-0.4,0.5-0.8,0.4c-1-0.3-2-0.3-3-0.1c-3,0.6-5.1,3.2-5.2,6.3c0.1,0.6,0.2,1.2,0.3,1.8
		C17.3,19.5,20.6,21.5,24.1,20.6z"/>
	<path class="st1" d="M30.4,26.6c-1.1-2.4-3.1-3.8-5.8-3.9c-1.4,0-2.8,0-4.2,0c-2.8,0.1-4.8,1.6-5.9,4.1c-0.9,2-1.4,4.2-2,6.3
		c-0.3,1.2-0.1,2.5,0.6,3.4c0,0,0,0,0,0s0.1,0.3,0.7,0.8c0.3,0.2,0.5,0.4,0.8,0.5c1.1,0.6,3.1,1.2,6.5,1.6v0
		c0.4,0.1,0.8,0.1,1.2,0.2c1,0.1,1.7-0.6,1.9-1.6c0.2-1-0.4-2-1.3-2.2c-1.4-0.4-2.8-0.7-4.2-1c-0.3-0.1-0.7-0.2-1-0.3
		c0.2-0.3,0.3-0.7,0.5-1c1.5-1.6,3.4-2.2,5.6-2.1c0.5,0,0.7-0.1,0.9-0.5c0.7-1.6,2.4-2.2,3.9-1.5c1.4,0.7,2,2.5,1.2,4
		c-0.3,0.5-0.6,0.8-1.3,0.8c-2-0.1-4,0-6,0c-0.4,0-0.8,0.2-1.2,0.3c0,0.1,0,0.1,0,0.2c2,0.3,3.8,0.8,3.8,3.4c1.6,0,3.1,0,4.7,0
		c0.2,0,0.5-0.1,0.7-0.2c1.5-0.7,2.1-1.9,2.3-3.5c0.1-1.1-0.3-2-0.7-3C31.5,29.7,31.1,28.1,30.4,26.6z"/>
</g>
<g>
</g>
<g>
</g>
<g>
</g>
<g>
</g>
<g>
</g>
<g>
</g>
<g>
</g>
<g>
</g>
<g>
</g>
<g>
</g>
<g>
</g>
<g>
</g>
<g>
</g>
<g>
</g>
<g>
</g>
</svg>
